<svg version="1.1" id="Layer_1" xmlns:x="ns_extend;" xmlns:i="ns_ai;" xmlns:graph="ns_graphs;" xmlns="http://www.w3.org/2000/svg" xmlns:xlink="http://www.w3.org/1999/xlink" x="0px" y="0px" viewBox="0 0 165.8 40" style="enable-background:new 0 0 165.8 40;" xml:space="preserve">
 <style type="text/css">
  .st0{fill:#80C343;}
 </style>
 <metadata>
  <sfw xmlns="ns_sfw;">
   <slices>
   </slices>
   <sliceSourceBounds bottomLeftOrigin="true" height="40" width="165.8" x="-50.8" y="20">
   </sliceSourceBounds>
  </sfw>
 </metadata>
 <g>
  <path id="Acer" class="st0" d="M165.5,1.8c-0.6-0.8-1.2-1.4-4.1-1.6c-0.7-0.1-3.2-0.1-7.3-0.1c-10.8,0-18.2,3.3-21.9,9.8
		c1-6.6-5.3-9.8-19.1-9.8C97,0,86.9,6.6,82.8,19.6c-1.5,3.8-1.6,8-0.5,12l-3.8,0.3c-3,0.2-6.9,0.4-9.3,0.4c-5.9,0-9.6-1-11-3
		c-1.3-1.8-1.1-5.1,0.3-10c2.5-8,8.6-11.6,18.3-11.6c5.1,0,10,0.5,10,0.5c0.6-0.1,1-0.7,0.9-1.3c0,0,0,0,0-0.1l-0.1-0.8l-0.3-2.7
		c-0.2-1.8-1.5-2.8-3.9-3.2C81.3,0.1,79.6,0,77.2,0h-0.1C64.3,0,55.4,4.3,50.4,12.7C52.2,4.2,46.3,0,32.6,0
		c-5.5-0.1-10.9,0.1-16.3,0.7c-2.1,0-3.9,1.2-4.6,3.2l-1.1,3.5c-0.2,0.6,0.1,1,0.9,1h0c0.6-0.1,2.9-0.3,6.9-0.6
		C23.6,7.2,27.5,7,30,7c7.5,0,10.7,1.9,9.5,5.7c-0.2,0.8-0.9,1.4-1.7,1.6c-7.1,1.2-12.8,2-16.9,2.6C9.1,18.3,2.4,22,0.5,27.9
		C-2,35.9,4.3,39.9,19.4,39.9c6.3,0.1,12.7-0.4,18.9-1.3c2.9-0.5,4.4-1.3,5-3.2l2.8-9c-0.3,9,6,13.5,18.8,13.5
		c4.5,0.1,8.9-0.1,13.3-0.6c2.6-0.5,3.9-1,4.5-3l0.6-2.8c2.7,4.3,8.7,6.4,18,6.4c9.8,0,15.5-0.3,17.1-0.8c1.1-0.2,2.1-1,2.5-2.1
		c0.1-0.2,0.1-0.4,0.1-0.6l1.2-3.8c0.2-0.7-0.1-1-0.9-1l-6.3,0.3c-4.2,0.2-7.4,0.4-9.8,0.3c-3.1,0.2-6.2-0.1-9.2-0.9
		c-2.4-0.8-3.9-3.2-3.5-5.7l19.8-2.6c8.9-1.1,14.8-3.9,17.8-8.2l-6.7,23.5c-0.1,0.4-0.1,0.8,0.1,1.1c0.4,0.3,0.8,0.5,1.3,0.4h8.2
		c0.9,0.1,1.9-0.4,2.1-1.4l7.2-25.4c1-3.3,4-5,9.3-5c4.8,0,8.4,0,10.7,0.1c0.1,0,0.1,0,0.2,0c0.8,0,1.5-0.5,1.7-1.3l1.3-3.5
		C165.9,3,165.9,2.3,165.5,1.8 M33.4,32.3c-3.7,0.5-7.4,0.7-11,0.6c-8.3,0-12-1.7-10.9-5.1c0.8-2.4,2.9-3.9,6.6-4.4L37,20.9
		L33.4,32.3z M121,11.8c-0.8,2.6-4.5,4.4-11.1,5.3l-15.8,2.3l0.4-1.3c0.8-3.5,2.7-6.6,5.6-8.7c2.4-1.5,6.3-2.3,11.7-2.3
		C118.9,7,122,8.6,121,11.8">
  </path>
 </g>
</svg>