<svg version="1.1" id="Layer_1" xmlns="http://www.w3.org/2000/svg" xmlns:xlink="http://www.w3.org/1999/xlink" x="0px" y="0px" viewBox="0 0 276.7 66" style="enable-background:new 0 0 276.7 66;" xml:space="preserve">
 <g>
  <path d="M65.1,61.6H49.6L45,50.3H19.4l-4.3,11.3H0L23,4.4h16.5L65.1,61.6z M31.6,18l-8.5,22.3h17.6L31.6,18z">
  </path>
  <path d="M120.7,4.4h12.4v57.2h-14.3V26l-15.4,17.9h-2.2l-15.4-18v35.6H71.6V4.4H84l18.4,21.3L120.7,4.4z">
  </path>
  <path d="M169.2,4.4c20.9,0,31.7,13,31.7,28.7c0,16.4-10.4,28.5-33.2,28.5H144V4.4H169.2z M158.3,51.1h9.3
		c14.3,0,18.6-9.7,18.6-18.1c0-9.9-5.3-18.1-18.8-18.1h-9.1V51.1z">
  </path>
  <polygon points="258.7,18 229.2,18 211.2,0 276.7,0 276.7,65.4 258.7,47.5 	">
  </polygon>
  <polygon points="229.2,47.5 229.2,21.6 210.7,40.1 210.7,66 236.6,66 255.1,47.5 	">
  </polygon>
 </g>
</svg>