<svg version="1.1" id="Layer_1" xmlns:x="ns_extend;" xmlns:i="ns_ai;" xmlns:graph="ns_graphs;" xmlns="http://www.w3.org/2000/svg" xmlns:xlink="http://www.w3.org/1999/xlink" x="0px" y="0px" viewBox="0 0 173.5 84.4" style="enable-background:new 0 0 173.5 84.4;" xml:space="preserve">
 <metadata>
  <sfw xmlns="ns_sfw;">
   <slices>
   </slices>
   <sliceSourceBounds bottomLeftOrigin="true" height="84.3" width="173.4" x="0" y="0">
   </sliceSourceBounds>
  </sfw>
 </metadata>
 <g>
  <path d="M71.5,11.4c-1.3-1.1-3.3-1.8-5.4-1.8c-4.9,0-8.9,3.8-8.9,8.8c0,4.9,4,8.7,8.9,8.8c2.7,0,5.1-1.1,6.7-3.1v-4.8
		c-0.9,1.5-2.6,3.4-4.2,4.1c-0.8,0.3-1.6,0.5-2.6,0.5c-3,0-5.6-2.4-5.6-5.5c0-2.9,2.3-5.5,5.6-5.5c1.5,0,2.9,0.6,3.9,1.6
		s2.7,3.1,3.4,4c2,2.1,4.8,3.5,8,3.5c6,0,10.9-4.9,10.9-10.9s-4.9-11-10.9-11c-3.5,0-6.6,1.8-8.6,4.4V11c1.5-4.2,4.3-7.5,8.6-7.5
		c4.1,0,7.5,3.4,7.5,7.6c0,4.1-3.3,7.5-7.5,7.5c-1.8,0-3.6-0.7-4.9-1.8C75,15.4,73.2,12.8,71.5,11.4">
  </path>
  <path d="M0,29.5h24.1v6.7c0,0-1.2-2.6-3.8-2.6H9.1v11.6h12.1v6.1c0,0-0.4-2-3.3-2H9.1v15.8c0,2.3,2.5,3.7,2.5,3.7H0.2
		c0,0,2.4-1.2,2.4-3.7V33.7C2.6,31,0,29.5,0,29.5">
  </path>
  <path d="M60.6,29.6h12.3c0,0-2.7,1.3-2.7,3.4v36.9c0,12.5-12.5,14.5-13.2,14.5c1.1-0.7,6.3-5.1,6.3-14.5V33
		C63.2,31,60.6,29.6,60.6,29.6">
  </path>
  <path d="M74.6,29.5h12.3c0,0-2.7,1.3-2.7,3.5v32.2c0,2.3,2.7,3.7,2.7,3.7H74.6c0,0,2.7-1.4,2.7-3.7V33
		C77.3,30.9,74.6,29.5,74.6,29.5">
  </path>
  <path d="M89.3,29.5h27.1l-2.3,7.2c0,0-0.7-3-3.3-3h-5.6v31.5c0,2,2.6,3.7,2.6,3.7h-12c0,0,2.6-1.6,2.6-3.7V33.7h-6.8
		c-1.9,0-4.7,3.6-4.7,3.6L89.3,29.5">
  </path>
  <path d="M161.6,29.5h11.8c0,0-2.5,1.3-2.5,3.5v23.8c0,9.7-8,12.7-13.6,12.7c-5.5,0-14.2-3-14.2-12.7V33c0-2.1-2.6-3.5-2.6-3.5h12.2
		c0,0-2.7,1.3-2.7,3.5v23.8c0,5.1,3.4,8.4,7.3,8.4c3.9,0,7-3.5,7-8.4V33C164.3,30.9,161.6,29.5,161.6,29.5">
  </path>
  <path d="M46.4,29.5h12.1c0,0-2.6,1.4-2.6,3.5v23.8c0,9.7-8.4,12.8-14,12.8c-5.5,0-14.2-3.1-14.2-12.8V33c0-2.1-2.5-3.5-2.5-3.5
		h12.2c0,0-2.8,1.4-2.8,3.5v23.8c0,5,3.4,8.5,7.3,8.5c4,0,7.1-3.5,7.1-8.5V33C49,30.9,46.4,29.5,46.4,29.5">
  </path>
  <path d="M136.9,35.8c0,0-1.7-3-6.7-3c-4.9,0-7.6,2.6-7.6,6c0,3.8,2.9,5.3,7.3,7.4c4.2,2,10.6,4.8,10.5,11.9
		c0,6.3-5.6,11.6-15.7,11.6c-3.1,0-7.4-1-7.4-1l-2.3-7.6c2.1,2.1,5.9,4.3,9.8,4.3c4,0,8.8-2.5,8.8-6.5c0-7.7-17.9-6.4-17.9-19.3
		c0-4.4,3.1-10.8,13.8-10.8c3.5,0,7.3,1,7.3,1v6">
  </path>
 </g>
</svg>