<svg version="1.1" id="Layer_1" xmlns:x="ns_extend;" xmlns:i="ns_ai;" xmlns:graph="ns_graphs;" xmlns="http://www.w3.org/2000/svg" xmlns:xlink="http://www.w3.org/1999/xlink" x="0px" y="0px" viewBox="0 0 62 80" style="enable-background:new 0 0 62 80;" xml:space="preserve">
 <style type="text/css">
  .st0{filter:url(#Adobe_OpacityMaskFilter);}
	.st1{fill-rule:evenodd;clip-rule:evenodd;fill:#FFFFFF;}
	.st2{mask:url(#b_1_);fill-rule:evenodd;clip-rule:evenodd;fill:#0B5ED7;}
 </style>
 <metadata>
  <sfw xmlns="ns_sfw;">
   <slices>
   </slices>
   <sliceSourceBounds bottomLeftOrigin="true" height="79.5" width="61.8" x="0" y="0.5">
   </sliceSourceBounds>
  </sfw>
 </metadata>
 <g>
  <defs>
   <filter id="Adobe_OpacityMaskFilter" filterUnits="userSpaceOnUse" x="0" y="0" width="61.8" height="79.5">
    <feColorMatrix type="matrix" values="1 0 0 0 0  0 1 0 0 0  0 0 1 0 0  0 0 0 1 0">
    </feColorMatrix>
   </filter>
  </defs>
  <mask maskUnits="userSpaceOnUse" x="0" y="0" width="61.8" height="79.5" id="b_1_">
   <g class="st0">
    <path id="a_1_" class="st1" d="M0,0h61.8v79.5H0V0z">
    </path>
   </g>
  </mask>
  <path class="st2" d="M53.8,62.3c-2.2,0.3-5.5,0.7-6.2,0.9s-1.6,0.7-1.9,2c-0.2,0.8-0.7,4.1-0.9,6.3C48.5,69.2,51.6,66.1,53.8,62.3
		L53.8,62.3z M30.9,75.4c4.7,0,9.1-1.2,12.9-3.4c-0.2-2.3-0.6-4.6-1-6.8c-0.2-1-1-1.7-1.9-2c-1.2-0.3-8.2-1.2-8.2-1.2v-0.5
		c0,0,7-0.8,8.2-1.2c0.8-0.2,1.6-0.7,1.9-2c0.3-1.2,1.1-7.7,1.2-8.3c-4.8,0.9-8.1,3.1-12.2,5.3c-4.4,2.3-8.7,3.9-14.2,3.9
		c-4.9,0-9.3-1.6-12.4-3.6C8.3,67.3,18.9,75.3,30.9,75.4z M4.6,17.1h2.9v-2.3h1c2.7,0,4.4-1.4,4.4-3.8c0-2.7-1.8-3.6-4.8-3.6
		c-1.1,0-2.5,0.1-3.5,0.2C4.6,7.6,4.6,17.1,4.6,17.1z M14,17.1h2.9v-3.7h3v3.7h2.9V7.6h-2.9v3.8h-3V7.6h-2.9
		C13.9,7.6,13.9,17.1,14,17.1z M24.8,17.1h2.9V7.6h-2.9V17.1z M29.8,17.1H35l0.4-1.9h-2.8V7.6h-2.9C29.8,7.6,29.8,17.1,29.8,17.1z
		 M36.4,17.1h2.9V7.6h-2.9V17.1z M41.4,17.1h2.9v-2.3h1c2.7,0,4.4-1.4,4.4-3.8c0-2.7-1.8-3.6-4.8-3.6c-1.1,0-2.5,0.1-3.5,0.2V17.1z
		 M30.9,21.3c-2.3,0-4.5,0.3-6.6,0.8c0.1,1,0.4,3.6,0.6,4.1c0.2,0.7,0.6,1,1.1,1.1c0.7,0.2,4.4,0.6,4.4,0.6v0.3c0,0-3.8,0.5-4.4,0.6
		c-0.4,0.1-0.9,0.4-1.1,1.1c-0.1,0.5-0.5,3-0.6,4c2.2,0.3,4.6,0.6,4.6,0.6V35c0,0-7,0.8-8.2,1.2c-0.8,0.2-1.6,0.7-2,2
		c-0.3,1.1-1,7.3-1.1,8.2c4.9-0.9,9.1-3.5,12.3-5c4.5-2.2,8.6-4,14.2-4c4.9,0,9.2,1.6,12.4,3.6C53.3,29.3,42.9,21.3,30.9,21.3
		L30.9,21.3z M55,14.5c0,0.6-0.4,0.9-1.5,0.9c-1.1,0-2.2-0.3-3.3-0.8l0.3,2.2c1,0.3,2,0.5,3,0.5c2.4,0,4.4-0.8,4.4-3.2
		c0-3.2-4.5-2.6-4.5-4.1c0-0.5,0.5-0.8,1.3-0.8c0.9,0,1.9,0.2,2.5,0.5l-0.2-2.1c-0.9-0.2-1.7-0.3-2.6-0.3c-2.3,0-3.9,0.9-3.9,2.9
		C50.5,13.6,55,12.9,55,14.5L55,14.5z M44.5,50c0.1,0.5,0.8,7.2,1.2,8.4c0.2,1,1,1.7,1.9,2c0.9,0.2,4.7,0.7,6.8,1
		c1.7-3,2.7-6.4,3.1-9.8c-2.9-1.2-6-1.8-9.1-1.8C46.9,49.7,45.6,49.8,44.5,50z M14.1,33.4c0.8-0.2,1.6-0.7,1.9-2
		c0.2-0.8,0.6-4,0.9-6.2c-3.6,2.3-6.7,5.3-8.9,9C10.1,34,12.1,33.7,14.1,33.4L14.1,33.4z M4.3,44.9c2.9,1.1,6,1.7,9.1,1.8
		c1.3,0,2.6-0.1,3.8-0.3c-0.1-1-0.8-7.2-1.1-8.3c-0.2-1-1-1.7-1.9-2c-0.8-0.2-4.5-0.7-6.6-1C5.8,38.2,4.8,41.5,4.3,44.9z M23.4,29.9
		c-0.1-0.5-0.5-0.9-1.1-1.1c-0.5-0.1-3-0.5-4-0.6c0.2,1.4,0.4,2.7,0.5,3.1c0.2,1,1,1.7,1.9,2c0.5,0.1,1.8,0.3,3.2,0.5
		C23.8,32.6,23.6,31.2,23.4,29.9z M23.4,26.2c0.1-0.5,0.5-3,0.6-4c-2.1,0.6-4.2,1.4-6.1,2.5c0.1,0.9,0.2,2.1,0.4,3.2
		c1-0.1,3.5-0.4,4-0.6C22.7,27.2,23.2,26.9,23.4,26.2z M4.3,51.7c3.4,2.2,8.1,3.3,12.1,3.3c6,0,9.6-1.8,13.5-3.8
		c5.4-2.7,9.9-5.6,17-5.6c3.7,0,7.4,0.9,10.8,2.6c0-1.1-0.1-2.3-0.2-3.4c-3.4-2.2-8.1-3.3-12-3.3c-6,0-9.6,1.8-13.5,3.8
		c-5.1,2.5-9.9,5.6-17,5.6c-4.3,0-10.8-2.7-10.8-2.7C4.1,49.4,4.2,50.6,4.3,51.7z M61.8,1.7v46.6c0,17.2-13.8,31.2-30.9,31.2
		C13.6,79.5,0,65.5,0,48.3V1.7C4,1.2,16.9,0,30.9,0C44.5,0,57.6,1.1,61.8,1.7z M38.2,67.1c-0.2-0.5-0.5-3.5-0.5-3.5h-0.2
		c0,0-0.3,3-0.5,3.5c-0.1,0.5-0.5,0.7-0.8,0.8c-0.5,0.1-3.5,0.5-3.5,0.5v0.2c0,0,2.9,0.4,3.5,0.5c0.3,0.1,0.7,0.3,0.8,0.8
		c0.2,0.5,0.5,3.5,0.5,3.5h0.2c0,0,0.3-3,0.5-3.5c0.2-0.5,0.5-0.8,0.8-0.8c0.5-0.1,3.5-0.5,3.5-0.5v-0.2c0,0-2.9-0.4-3.5-0.5
		C38.7,67.9,38.3,67.7,38.2,67.1z M47,11c0-1.2-0.7-1.9-2.1-1.9l-0.5,0v3.9h0.5C46.4,13.1,47,12.3,47,11z M8,13.1H7.6V9.2H8
		c1.4,0,2.1,0.7,2.1,1.9C10.1,12.3,9.5,13.1,8,13.1z">
  </path>
 </g>
</svg>