<svg width="150" height="32" viewBox="0 0 150 32" fill="none" xmlns="http://www.w3.org/2000/svg">
<g clip-path="url(#clip0_5_86)">
<rect width="150" height="32" fill="white"/>
<path fill-rule="evenodd" clip-rule="evenodd" d="M146.118 0H141.87H8.13006H3.88191H0V3.84796V5.81463V26.1853V28.1519V32H3.88191H8.13006H141.87H146.118H150V28.1519V26.1853V5.81463V3.84796V0H146.118Z" fill="#FFE800"/>
<path fill-rule="evenodd" clip-rule="evenodd" d="M55.9426 10.9498H53.0451V8.55298H55.9426V10.9498Z" fill="black"/>
<path fill-rule="evenodd" clip-rule="evenodd" d="M7.44268 19.7384C7.46226 21.0081 8.52379 21.5206 9.66676 21.5206C10.5042 21.5206 11.5646 21.1923 11.5646 20.1683C11.5646 19.2871 10.3603 18.9797 8.27828 18.5292C6.60612 18.1596 4.93208 17.5664 4.93208 15.7022C4.93208 12.9985 7.26029 12.3016 9.52492 12.3016C11.8296 12.3016 13.9516 13.0796 14.1766 15.6821H11.4216C11.3403 14.5546 10.4836 14.247 9.4423 14.247C8.78959 14.247 7.83065 14.3705 7.83065 15.2311C7.83065 16.2757 9.46358 16.4189 11.1156 16.8089C12.8091 17.1978 14.4631 17.8124 14.4631 19.7794C14.4631 22.565 12.0543 23.4662 9.64574 23.4662C7.1979 23.4662 4.8109 22.5449 4.6875 19.7384H7.44268Z" fill="black"/>
<path fill-rule="evenodd" clip-rule="evenodd" d="M15.4194 15.8463C15.5818 13.1209 18.0098 12.3016 20.3768 12.3016C22.4804 12.3016 25.0105 12.773 25.0105 15.3126V20.8239C25.0105 21.7866 25.1116 22.7496 25.3766 23.1789H22.4388C22.3357 22.8522 22.2558 22.5044 22.2345 22.1557C21.3168 23.1187 19.9686 23.4662 18.6841 23.4662C16.6847 23.4662 15.0933 22.4627 15.0933 20.2903C15.0933 17.8943 16.8879 17.3212 18.6841 17.0746C20.4591 16.8089 22.112 16.8702 22.112 15.6821C22.112 14.4338 21.2555 14.247 20.2345 14.247C19.1333 14.247 18.4193 14.6987 18.3157 15.8463H15.4194ZM22.1119 17.9967C21.6221 18.4264 20.6019 18.448 19.7049 18.6117C18.8064 18.7963 17.9901 19.1033 17.9901 20.1683C17.9901 21.2548 18.8275 21.5206 19.7645 21.5206C22.0303 21.5206 22.1119 19.7177 22.1119 19.0828V17.9967Z" fill="black"/>
<path fill-rule="evenodd" clip-rule="evenodd" d="M26.2342 8.55298H29.1321V14.0623H29.1937C29.9279 12.8756 31.1933 12.3016 32.2749 12.3016C35.3564 12.3016 36.1314 14.0428 36.1314 16.6648V23.1789H33.2326V17.1978C33.2326 15.456 32.7244 14.596 31.3767 14.596C29.8048 14.596 29.1321 15.4767 29.1321 17.6283V23.1789H26.2342V8.55298Z" fill="black"/>
<path fill-rule="evenodd" clip-rule="evenodd" d="M40.2946 10.9498H37.3966V8.55298H40.2946V10.9498ZM37.3965 12.5885H40.2946V23.1789H37.3965V12.5885Z" fill="black"/>
<path fill-rule="evenodd" clip-rule="evenodd" d="M41.6053 8.55298H44.5034V13.8793H44.5444C45.2569 12.7931 46.5643 12.3016 47.8697 12.3016C49.9721 12.3016 52.2363 14.0014 52.2363 17.8746C52.2363 21.7669 49.9721 23.4662 47.8697 23.4662C46.3193 23.4662 45.0342 22.9948 44.4015 21.8276H44.36V23.1789H41.6053V8.55298ZM46.8701 14.4933C45.1556 14.4933 44.4015 16.1112 44.4015 17.8943C44.4015 19.6566 45.1556 21.2742 46.8701 21.2742C48.584 21.2742 49.3389 19.6566 49.3389 17.8943C49.3389 16.1112 48.584 14.4933 46.8701 14.4933Z" fill="black"/>
<path fill-rule="evenodd" clip-rule="evenodd" d="M105.445 23.179H102.548V20.7827H105.445V23.179Z" fill="black"/>
<path fill-rule="evenodd" clip-rule="evenodd" d="M53.0451 12.5885H55.9426V23.1789H53.0451V12.5885Z" fill="black"/>
<path fill-rule="evenodd" clip-rule="evenodd" d="M57.2536 12.5885H60.0072V14.0623H60.0695C60.8041 12.8756 62.0686 12.3016 63.2944 12.3016C66.375 12.3016 67.1502 14.0428 67.1502 16.6648V23.1789H64.2527V17.1978C64.2527 15.456 63.7421 14.596 62.3952 14.596C60.8248 14.596 60.1508 15.4767 60.1508 17.6283V23.1789H57.2536V12.5885Z" fill="black"/>
<path fill-rule="evenodd" clip-rule="evenodd" d="M76 21.8276H75.96C75.2849 22.9744 74.1018 23.4662 72.7548 23.4662C69.5717 23.4662 68.0208 20.7216 68.0208 17.792C68.0208 14.9444 69.5912 12.3016 72.6937 12.3016C73.938 12.3016 75.1626 12.8333 75.817 13.8793H75.857V8.55298H78.7546V23.1789H76V21.8276ZM73.469 14.4933C71.5713 14.4933 70.9184 16.1321 70.9184 17.8746C70.9184 19.5334 71.6744 21.2742 73.469 21.2742C75.3863 21.2742 75.96 19.5953 75.96 17.8534C75.96 16.1321 75.3473 14.4933 73.469 14.4933Z" fill="black"/>
<path fill-rule="evenodd" clip-rule="evenodd" d="M82.4415 18.5909C82.5226 20.4346 83.42 21.2742 85.0322 21.2742C86.1962 21.2742 87.1342 20.5575 87.3189 19.9018H89.8691C89.052 22.4013 87.3189 23.4662 84.9311 23.4662C81.6048 23.4662 79.5447 21.1725 79.5447 17.8943C79.5447 14.7192 81.7272 12.3016 84.9311 12.3016C88.5219 12.3016 90.2578 15.3339 90.053 18.5909H82.4415ZM87.1555 16.7467C86.8897 15.2721 86.2575 14.4934 84.8492 14.4934C83.0125 14.4934 82.4817 15.9273 82.4415 16.7467H87.1555Z" fill="black"/>
<path fill-rule="evenodd" clip-rule="evenodd" d="M90.7468 12.5885H93.5022V14.0623H93.564C94.297 12.8756 95.5626 12.3016 96.7876 12.3016C99.8681 12.3016 100.644 14.0428 100.644 16.6648V23.1789H97.7454V17.1978C97.7454 15.456 97.2356 14.596 95.8887 14.596C94.3175 14.596 93.6443 15.4767 93.6443 17.6283V23.1789H90.7468V12.5885Z" fill="black"/>
<path fill-rule="evenodd" clip-rule="evenodd" d="M114.337 16.3026C114.153 15.1134 113.399 14.4784 112.193 14.4784C110.337 14.4784 109.724 16.3632 109.724 17.9206C109.724 19.4364 110.316 21.2598 112.132 21.2598C113.48 21.2598 114.255 20.3994 114.439 19.1087H117.235C116.867 21.9155 114.929 23.4515 112.154 23.4515C108.969 23.4515 106.826 21.1977 106.826 18.0231C106.826 14.7252 108.787 12.2876 112.215 12.2876C114.705 12.2876 116.99 13.5973 117.173 16.3026H114.337Z" fill="black"/>
<path fill-rule="evenodd" clip-rule="evenodd" d="M123.376 12.2876C126.702 12.2876 128.844 14.4989 128.844 17.8792C128.844 21.2401 126.702 23.4515 123.376 23.4515C120.069 23.4515 117.927 21.2401 117.927 17.8792C117.927 14.4989 120.069 12.2876 123.376 12.2876ZM123.376 21.2598C125.356 21.2598 125.947 19.5596 125.947 17.8792C125.947 16.179 125.356 14.4784 123.376 14.4784C121.417 14.4784 120.824 16.179 120.824 17.8792C120.824 19.5596 121.417 21.2598 123.376 21.2598Z" fill="black"/>
<path fill-rule="evenodd" clip-rule="evenodd" d="M129.648 12.5733H132.382V14.0073H132.423C133.178 12.922 134.279 12.2876 135.647 12.2876C136.973 12.2876 138.157 12.778 138.729 14.0476C139.341 13.1266 140.443 12.2876 141.913 12.2876C144.156 12.2876 145.768 13.3317 145.768 16.0764V23.1645H142.871V17.1625C142.871 15.7485 142.749 14.582 141.096 14.582C139.462 14.582 139.157 15.9334 139.157 17.2653V23.1645H136.26V17.2251C136.26 15.9949 136.341 14.582 134.503 14.582C133.933 14.582 132.546 14.9499 132.546 17.0195V23.1645H129.648V12.5733Z" fill="black"/>
</g>
<defs>
<clipPath id="clip0_5_86">
<rect width="150" height="32" fill="white"/>
</clipPath>
</defs>
</svg>
